<svg width="36" height="36" viewBox="0 0 36 36" fill="none" xmlns="http://www.w3.org/2000/svg">
<g id="ic:baseline-group-add">
<path id="Vector" d="M28 15V13H26V15H24V17H26V19H28V17H30V15H28ZM14 18C16.21 18 18 16.21 18 14C18 11.79 16.21 10 14 10C11.79 10 10 11.79 10 14C10 16.21 11.79 18 14 18ZM14 19C11.33 19 6 20.34 6 23V26H22V23C22 20.34 16.67 19 14 19ZM18.51 10.05C19.43 11.11 20 12.49 20 14C20 15.51 19.43 16.89 18.51 17.95C20.47 17.7 22 16.04 22 14C22 11.96 20.47 10.3 18.51 10.05ZM22.53 19.83C23.42 20.66 24 21.7 24 23V26H26V23C26 21.55 24.41 20.49 22.53 19.83Z" fill="#FCFBF5"/>
</g>
</svg>
