<svg width="48" height="48" viewBox="0 0 48 48" fill="none" xmlns="http://www.w3.org/2000/svg">
<g id="Other">
<circle id="Ellipse 4" cx="24" cy="24" r="23.5" stroke="#FCFBF5"/>
<g id="ic:round-precision-manufacturing">
<path id="Vector" d="M34.5733 20.1333L29.7733 22.3733L26.6667 19.2667V17.4L29.7733 14.2933L34.5733 16.5333C35.08 16.7733 35.6667 16.5467 35.9067 16.0533C36.1467 15.5467 35.92 14.96 35.4267 14.72L30.2 12.28C29.9521 12.163 29.6741 12.1259 29.4042 12.1736C29.1344 12.2214 28.886 12.3517 28.6933 12.5467L26.3733 14.8667C26.2536 14.7027 26.0972 14.5691 25.9166 14.4765C25.7361 14.3839 25.5363 14.3349 25.3333 14.3333C24.6 14.3333 24 14.9333 24 15.6667V17H19.76C19.12 15.2133 17.28 14 15.2 14.4133C13.64 14.72 12.36 16 12.0667 17.56C11.7333 19.3467 12.6 20.9467 13.9733 21.7733L17.44 33H15.3333C14.2267 33 13.3333 33.8933 13.3333 35C13.3333 36.1067 14.2267 37 15.3333 37H28.6667C29.7733 37 30.6667 36.1067 30.6667 35C30.6667 33.8933 29.7733 33 28.6667 33H25.84L19.2133 20.6933C19.44 20.3733 19.6267 20.04 19.76 19.6667H24V21C24 21.7333 24.6 22.3333 25.3333 22.3333C25.76 22.3333 26.1333 22.12 26.3733 21.8L28.6933 24.12C29.0933 24.52 29.6933 24.6267 30.2 24.3867L35.4267 21.9467C35.9333 21.7067 36.1467 21.12 35.9067 20.6133C35.7931 20.3732 35.589 20.1879 35.3391 20.0979C35.0892 20.008 34.8139 20.0207 34.5733 20.1333ZM16 19.6667C15.2667 19.6667 14.6667 19.0667 14.6667 18.3333C14.6667 17.6 15.2667 17 16 17C16.7333 17 17.3333 17.6 17.3333 18.3333C17.3333 19.0667 16.7333 19.6667 16 19.6667Z" fill="#FCFBF5"/>
</g>
</g>
</svg>
