<svg width="17" height="17" viewBox="0 0 17 17" fill="none" xmlns="http://www.w3.org/2000/svg">
<g id="camera" clip-path="url(#clip0_2537_400)">
<path id="Vector" d="M16.2777 13.617C16.2777 13.9697 16.1375 14.3081 15.8881 14.5575C15.6386 14.807 15.3003 14.9471 14.9475 14.9471H2.97615C2.62337 14.9471 2.28504 14.807 2.03559 14.5575C1.78614 14.3081 1.646 13.9697 1.646 13.617V6.30127C1.646 5.9485 1.78614 5.61018 2.03559 5.36073C2.28504 5.11128 2.62337 4.97114 2.97615 4.97114H5.63645L6.96661 2.97595H10.9571L12.2872 4.97114H14.9475C15.3003 4.97114 15.6386 5.11128 15.8881 5.36073C16.1375 5.61018 16.2777 5.9485 16.2777 6.30127V13.617Z" stroke="#FCFBF5" stroke-linecap="round" stroke-linejoin="round"/>
<path id="Vector_2" d="M8.96182 12.2868C10.4311 12.2868 11.6221 11.0958 11.6221 9.62656C11.6221 8.15735 10.4311 6.96631 8.96182 6.96631C7.49257 6.96631 6.30151 8.15735 6.30151 9.62656C6.30151 11.0958 7.49257 12.2868 8.96182 12.2868Z" stroke="#FCFBF5" stroke-linecap="round" stroke-linejoin="round"/>
</g>
<defs>
<clipPath id="clip0_2537_400">
<rect width="15.9618" height="15.9615" fill="white" transform="translate(0.980957 0.980713)"/>
</clipPath>
</defs>
</svg>
