<svg width="56" height="56" viewBox="0 0 56 56" fill="none" xmlns="http://www.w3.org/2000/svg">
<g id="ic:baseline-call-end" clip-path="url(#clip0_2716_3187)">
<path id="Vector" d="M28 21.0002C24.2667 21.0002 20.65 21.5835 17.2667 22.6802V29.9135C17.2667 30.8235 16.73 31.6402 15.96 32.0135C13.6733 33.1568 11.5967 34.6268 9.75333 36.3302C9.33333 36.7502 8.75 36.9835 8.12 36.9835C7.46666 36.9835 6.88333 36.7268 6.46333 36.3068L0.676664 30.5202C0.458521 30.3084 0.285971 30.0543 0.169608 29.7734C0.0532451 29.4925 -0.00447338 29.1908 -2.96062e-06 28.8868C-2.96062e-06 28.2335 0.256664 27.6502 0.676664 27.2302C7.79333 20.4868 17.4067 16.3335 28 16.3335C38.5933 16.3335 48.2067 20.4868 55.3233 27.2302C55.7433 27.6502 56 28.2335 56 28.8868C56 29.5402 55.7433 30.1235 55.3233 30.5435L49.5367 36.3302C49.1167 36.7502 48.5333 37.0068 47.88 37.0068C47.25 37.0068 46.6667 36.7502 46.2467 36.3535C44.3893 34.6213 42.2909 33.1673 40.0167 32.0368C39.6233 31.8453 39.2919 31.5466 39.0608 31.1751C38.8296 30.8036 38.708 30.3744 38.71 29.9368V22.7035C35.35 21.5835 31.7333 21.0002 28 21.0002Z" fill="#FF3030"/>
</g>
<defs>
<clipPath id="clip0_2716_3187">
<rect width="56" height="56" fill="white"/>
</clipPath>
</defs>
</svg>
