<svg width="56" height="56" viewBox="0 0 56 56" fill="none" xmlns="http://www.w3.org/2000/svg">
<g id="mdi:microphone-off">
<path id="Vector" d="M44.3333 25.6665C44.3333 28.4432 43.54 31.0332 42.2333 33.3198L39.3633 30.4498C39.9933 29.0032 40.3667 27.3932 40.3667 25.6665H44.3333ZM35 26.0398L21 12.0865V11.6665C21 9.80999 21.7375 8.02951 23.0503 6.71676C24.363 5.404 26.1435 4.6665 28 4.6665C29.8565 4.6665 31.637 5.404 32.9497 6.71676C34.2625 8.02951 35 9.80999 35 11.6665V25.6665V26.0398ZM9.96333 6.99984L49 46.0365L46.0367 48.9998L36.26 39.2232C34.4633 40.2965 32.4567 41.0198 30.3333 41.3465V48.9998H25.6667V41.3465C18.0133 40.2032 11.6667 33.6232 11.6667 25.6665H15.6333C15.6333 32.6665 21.56 37.5665 28 37.5665C29.89 37.5665 31.7333 37.1232 33.39 36.3532L29.5167 32.4798L28 32.6665C26.1435 32.6665 24.363 31.929 23.0503 30.6163C21.7375 29.3035 21 27.523 21 25.6665V23.9865L7 9.96317L9.96333 6.99984Z" fill="#FCFBF5"/>
</g>
</svg>
