<svg width="74" height="92" viewBox="0 0 74 92" fill="none" xmlns="http://www.w3.org/2000/svg">
<g id="Group">
<path id="Vector" d="M14.9327 76.4623C15.375 73.2683 15.7498 70.4509 16.1622 67.6335C16.7919 63.3622 17.5191 59.1135 18.0514 54.8271C18.1863 53.7649 17.7965 52.6199 17.5491 51.5351C16.7319 47.9945 15.36 44.5067 15.1351 40.9359C14.7378 34.706 14.9627 28.4234 15.0377 22.1633C15.1951 9.69591 25.0309 -0.097203 37.2207 0.000728089C49.2755 0.0986592 58.8939 9.99724 58.9539 22.3968C58.9839 28.5815 58.9764 34.7738 58.9539 40.9585C58.9014 52.3713 51.1497 61.283 39.987 63.1362C37.8804 63.4827 35.8338 64.5901 33.9296 65.6522C28.2395 68.8388 22.6394 72.176 16.9943 75.4454C16.462 75.7542 15.8848 75.9953 14.9477 76.4548L14.9327 76.4623ZM24.4311 61.9535C24.6261 62.0891 24.821 62.2171 25.0159 62.3527C28.157 60.5372 31.2682 58.669 34.4544 56.9288C35.354 56.4392 36.4335 56.1077 37.4606 56.0324C45.6021 55.4674 51.5995 49.245 51.6745 41.0565C51.7345 34.8039 51.7345 28.5514 51.6745 22.2989C51.5995 13.9672 45.1448 7.39829 37.0557 7.32296C29.0642 7.24763 22.4145 13.8919 22.3095 22.1708C22.2271 28.5665 22.0622 34.9772 22.3995 41.3578C22.5419 44.0396 23.584 46.8043 24.791 49.245C25.5856 50.8571 25.908 52.2206 25.6156 53.9156C25.1583 56.5823 24.821 59.2717 24.4311 61.9535Z" fill="#FBFAF4"/>
<path id="Vector_2" d="M23.5466 75.2386C27.5349 73.6115 30.601 70.4249 35.7888 70.9071C51.3822 72.361 66.1359 58.741 66.6307 42.9515C66.7956 37.6331 66.7356 32.3071 66.6606 26.9887C66.6382 25.241 67.1479 24.5555 68.9697 24.6007C74.9296 24.7589 73.9475 23.9152 73.9325 29.6404C73.9175 35.3807 74.1125 41.1812 73.4302 46.8612C71.5785 62.259 58.909 75.1633 43.683 77.7547C42.6934 77.9204 41.0366 78.3122 40.9316 78.8395C40.5943 80.5495 40.7142 82.3876 40.9616 84.1353C41.0066 84.4743 42.401 84.7982 43.1882 84.8359C46.5167 85.0016 46.5168 84.9639 46.5242 88.3915C46.5242 88.9641 46.4868 89.5441 46.5242 90.1166C46.6067 91.5253 45.9095 92.0075 44.5751 91.9999C39.4922 91.9623 34.4094 91.9698 29.3341 91.9849C28.1121 91.9849 27.4224 91.5253 27.4824 90.2146C27.4974 89.9283 27.4824 89.642 27.4674 89.3482C27.3999 85.0694 27.3999 85.0167 31.5381 84.8811C32.9625 84.8359 33.3374 84.3086 33.3149 82.9225C33.2324 78.4553 33.2774 78.5005 28.9967 77.5061C27.16 77.0843 25.3758 76.4364 23.5616 75.894C23.5616 75.6756 23.5466 75.4571 23.5391 75.2386H23.5466Z" fill="#FBFAF4"/>
<path id="Vector_3" d="M12.3298 68.9024C7.80921 64.7893 4.75802 60.2619 2.6814 55.0791C0.852185 50.5065 -0.0774176 45.7455 0.00504714 40.7811C0.0875119 36.1106 0.0725183 31.44 0.00504714 26.777C-0.0174432 25.2327 0.424868 24.5773 2.05917 24.6074C8.26652 24.7129 7.22446 24.0198 7.29193 29.6471C7.34441 33.7376 7.25445 37.8357 7.32192 41.9337C7.41188 47.6815 9.03869 52.9849 12.3298 57.7006C13.3868 59.2073 13.8891 60.616 13.4093 62.4766C12.9145 64.4051 12.7346 66.424 12.3373 68.9024H12.3298Z" fill="#FBFAF4"/>
</g>
</svg>
