<svg width="56" height="56" viewBox="0 0 56 56" fill="none" xmlns="http://www.w3.org/2000/svg">
<g id="mdi:microphone">
<path id="Vector" d="M28.0001 4.6665C29.8566 4.6665 31.6371 5.404 32.9498 6.71676C34.2626 8.02951 35.0001 9.80999 35.0001 11.6665V25.6665C35.0001 27.523 34.2626 29.3035 32.9498 30.6163C31.6371 31.929 29.8566 32.6665 28.0001 32.6665C26.1436 32.6665 24.3631 31.929 23.0503 30.6163C21.7376 29.3035 21.0001 27.523 21.0001 25.6665V11.6665C21.0001 9.80999 21.7376 8.02951 23.0503 6.71676C24.3631 5.404 26.1436 4.6665 28.0001 4.6665ZM44.3334 25.6665C44.3334 33.9032 38.2434 40.6932 30.3334 41.8365V48.9998H25.6667V41.8365C17.7567 40.6932 11.6667 33.9032 11.6667 25.6665H16.3334C16.3334 28.7607 17.5626 31.7282 19.7505 33.9161C21.9384 36.104 24.9059 37.3332 28.0001 37.3332C31.0943 37.3332 34.0617 36.104 36.2497 33.9161C38.4376 31.7282 39.6667 28.7607 39.6667 25.6665H44.3334Z" fill="#FCFBF5"/>
</g>
</svg>
