<svg width="173" height="28" viewBox="0 0 173 28" fill="none" xmlns="http://www.w3.org/2000/svg">
<g id="Group">
<path id="Vector" d="M5.45715 5.59405V13.1103H15.8299V16.7889H5.45715V27.6492H0.864746V1.896H17.3173V5.5908H5.45715V5.59405Z" fill="#FBFAF4"/>
<path id="Vector_2" d="M29.3827 8.22719C29.6951 8.27589 29.9295 8.32784 30.0824 8.38628L30.0466 12.5421C29.4543 12.448 28.8717 12.3993 28.2923 12.3993C26.3167 12.3993 24.9953 13.1363 24.3216 14.6103V27.646H19.9082V8.50966H24.11L24.2337 10.6687C24.7187 9.8668 25.3208 9.24667 26.0433 8.8116C26.7626 8.37654 27.5958 8.15576 28.543 8.15576C28.7903 8.15576 29.0702 8.17849 29.3859 8.22719H29.3827Z" fill="#FBFAF4"/>
<path id="Vector_3" d="M37.0701 1.85057C37.5193 2.29213 37.7439 2.85706 37.7439 3.53888C37.7439 4.2207 37.5193 4.76615 37.0701 5.20122C36.621 5.63628 36.0124 5.85706 35.2442 5.85706C34.4761 5.85706 33.8675 5.64278 33.4184 5.21096C32.9692 4.77914 32.7446 4.22395 32.7446 3.53888C32.7446 2.85382 32.9692 2.29213 33.4184 1.85057C33.8675 1.40901 34.4761 1.18823 35.2442 1.18823C36.0124 1.18823 36.621 1.40901 37.0701 1.85057ZM33.0278 27.646V8.50966H37.4412V27.646H33.0278Z" fill="#FBFAF4"/>
<path id="Vector_4" d="M58.2911 19.4578H45.7929C45.8743 20.4351 46.1314 21.302 46.5546 22.0585C46.9777 22.815 47.557 23.4026 48.2828 23.8279C49.0086 24.2533 49.8581 24.4643 50.828 24.4643C52.8134 24.4643 54.4082 23.6851 55.6157 22.1299L57.9721 24.4124C57.2756 25.4383 56.3057 26.2922 55.0656 26.9773C53.8256 27.6624 52.3219 28.0033 50.5611 28.0033C48.6929 28.0033 47.0623 27.6007 45.6693 26.7922C44.273 25.9838 43.2055 24.8799 42.4601 23.4773C41.7148 22.0747 41.3438 20.5 41.3438 18.7565V18.0325C41.3438 16.065 41.7213 14.3344 42.4797 12.8409C43.2347 11.3507 44.2763 10.1981 45.6009 9.38313C46.9256 8.5682 48.413 8.16235 50.0696 8.16235C51.8793 8.16235 53.396 8.55846 54.6263 9.34742C55.8565 10.1364 56.7744 11.2435 57.383 12.6624C57.9916 14.0844 58.2976 15.7305 58.2976 17.6039V19.4611L58.2911 19.4578ZM53.9297 15.9383C53.8712 14.7013 53.5327 13.6818 52.9208 12.8864C52.3056 12.0909 51.3487 11.6916 50.0501 11.6916C48.8914 11.6916 47.9573 12.0942 47.2478 12.8929C46.5383 13.6948 46.0826 14.8214 45.8841 16.2695H53.933V15.9318L53.9297 15.9383Z" fill="#FBFAF4"/>
<path id="Vector_5" d="M75.886 9.84739C76.9438 10.974 77.4743 12.7922 77.4743 15.3019V27.6461H73.0609V15.2662C73.0609 13.9935 72.7875 13.0877 72.2375 12.5519C71.6874 12.0162 70.8445 11.7467 69.7118 11.7467C68.8851 11.7467 68.1463 11.948 67.4954 12.3474C66.8444 12.7467 66.3237 13.3084 65.9364 14.026V27.6428H61.5229V8.50648H65.6727L65.8159 10.7175C66.5027 9.89285 67.3163 9.25973 68.2635 8.81493C69.2073 8.37337 70.2488 8.15259 71.3847 8.15259C73.3343 8.15259 74.838 8.71428 75.8958 9.8409L75.886 9.84739Z" fill="#FBFAF4"/>
<path id="Vector_6" d="M97.8455 0.480469V27.6461H93.8552L93.6437 25.6461C92.3678 27.2142 90.6591 28 88.5207 28C87.0073 28 85.6794 27.5811 84.5402 26.7435C83.4011 25.9058 82.5223 24.75 81.9072 23.2759C81.292 21.8019 80.9861 20.1396 80.9861 18.2889V17.9188C80.9861 15.9837 81.2888 14.2824 81.9007 12.8084C82.5093 11.3344 83.3848 10.1915 84.524 9.37657C85.6631 8.56164 87.0073 8.1558 88.5566 8.1558C90.5647 8.1558 92.1921 8.85709 93.4321 10.2597V0.480469H97.8455ZM93.4321 22.0941V13.9935C92.664 12.4967 91.4109 11.7467 89.6729 11.7467C88.2311 11.7467 87.157 12.3181 86.454 13.461C85.751 14.6038 85.3995 16.0909 85.3995 17.9188V18.2889C85.3995 20.1038 85.7445 21.5746 86.4377 22.7013C87.131 23.8279 88.1953 24.3896 89.6371 24.3896C91.3849 24.3896 92.651 23.6233 93.4321 22.0909V22.0941Z" fill="#FBFAF4"/>
<path id="Vector_7" d="M122.259 27.4155V27.646H117.332L112.209 17.7759H107.297V27.646H102.705V1.896H111.854C114.832 1.896 117.133 2.56158 118.76 3.896C120.384 5.22716 121.198 7.14924 121.198 9.66223C121.198 11.3603 120.791 12.7986 119.974 13.9772C119.157 15.1557 118.002 16.0648 116.498 16.7012L122.259 27.4187V27.4155ZM107.294 14.1005H111.867C113.403 14.1005 114.575 13.7174 115.385 12.9512C116.196 12.185 116.599 11.1655 116.599 9.89275C116.599 8.53885 116.209 7.48041 115.428 6.72717C114.646 5.97392 113.455 5.59405 111.847 5.59405H107.291V14.1005H107.294Z" fill="#FBFAF4"/>
<path id="Vector_8" d="M140.961 27.3473V27.6493H136.456C136.267 27.2369 136.101 26.6428 135.958 25.8636C135.356 26.5129 134.634 27.0324 133.794 27.4188C132.954 27.8084 132.004 28.0032 130.94 28.0032C129.686 28.0032 128.564 27.7564 127.571 27.2597C126.578 26.7629 125.804 26.0811 125.247 25.2077C124.69 24.3343 124.414 23.3571 124.414 22.2726C124.414 20.2337 125.172 18.672 126.692 17.5843C128.212 16.4999 130.363 15.9577 133.153 15.9577H135.812V14.7207C135.812 13.7077 135.535 12.9155 134.979 12.3408C134.422 11.7694 133.602 11.4837 132.515 11.4837C131.864 11.4837 131.291 11.5941 130.796 11.8181C130.298 12.0421 129.914 12.3473 129.644 12.7369C129.371 13.1265 129.237 13.5616 129.237 14.0454H124.824C124.824 13.0194 125.153 12.0551 125.807 11.1525C126.464 10.2499 127.395 9.52589 128.609 8.97719C129.82 8.42849 131.206 8.15576 132.765 8.15576C134.23 8.15576 135.525 8.40252 136.648 8.89927C137.771 9.39602 138.65 10.1363 139.281 11.1265C139.913 12.1168 140.228 13.3246 140.228 14.7532V23.1882C140.228 24.9317 140.469 26.3181 140.954 27.3441L140.961 27.3473ZM134.253 23.8278C134.969 23.3928 135.49 22.8668 135.822 22.2532V18.6817H133.517C131.981 18.6817 130.816 18.9577 130.025 19.5129C129.234 20.0681 128.837 20.8441 128.837 21.8473C128.837 22.6265 129.097 23.2597 129.618 23.7499C130.139 24.2402 130.865 24.4837 131.799 24.4837C132.733 24.4837 133.54 24.2662 134.253 23.8311V23.8278Z" fill="#FBFAF4"/>
<path id="Vector_9" d="M153.657 24.1817V27.5778C152.808 27.8602 151.848 28.0031 150.787 28.0031C149.228 28.0031 147.997 27.5713 147.099 26.7109C146.201 25.8505 145.752 24.4771 145.752 22.5907V11.7661H142.63V8.51283H145.752V3.84399H150.165V8.51283H153.534V11.7661H150.165V22.2888C150.165 23.0907 150.331 23.6362 150.663 23.9252C150.995 24.2141 151.49 24.357 152.154 24.357C152.626 24.357 153.13 24.2985 153.661 24.1817H153.657Z" fill="#FBFAF4"/>
<path id="Vector_10" d="M173 19.4578H160.502C160.583 20.4351 160.84 21.302 161.264 22.0585C161.69 22.8117 162.266 23.4026 162.992 23.8279C163.718 24.2533 164.567 24.4643 165.537 24.4643C167.522 24.4643 169.117 23.6851 170.325 22.1299L172.681 24.4124C171.985 25.4383 171.015 26.2922 169.775 26.9773C168.535 27.6624 167.031 28.0033 165.27 28.0033C163.402 28.0033 161.771 27.6007 160.378 26.7922C158.982 25.9838 157.914 24.8799 157.169 23.4773C156.424 22.0747 156.053 20.5 156.053 18.7565V18.0325C156.053 16.065 156.43 14.3344 157.189 12.8409C157.944 11.3507 158.985 10.1981 160.31 9.38313C161.635 8.5682 163.122 8.16235 164.779 8.16235C166.588 8.16235 168.105 8.55846 169.335 9.34742C170.566 10.1364 171.483 11.2435 172.092 12.6624C172.701 14.0844 173.007 15.7305 173.007 17.6039V19.4611L173 19.4578ZM168.639 15.9383C168.58 14.7013 168.242 13.6818 167.63 12.8864C167.015 12.0909 166.058 11.6916 164.759 11.6916C163.6 11.6916 162.666 12.0942 161.957 12.8929C161.247 13.6948 160.792 14.8214 160.593 16.2695H168.642V15.9318L168.639 15.9383Z" fill="#FBFAF4"/>
</g>
</svg>
