<svg width="33" height="40" viewBox="0 0 33 40" fill="none" xmlns="http://www.w3.org/2000/svg">
<g id="Group">
<path id="Vector" d="M6.48682 32.9546C6.67885 31.578 6.84159 30.3637 7.0206 29.1494C7.29399 27.3085 7.6097 25.4773 7.84078 23.6299C7.89937 23.1721 7.73012 22.6786 7.62272 22.2111C7.26796 20.6851 6.67234 19.1819 6.5747 17.6429C6.4022 14.9579 6.49984 12.2501 6.53239 9.55202C6.60074 4.17864 10.8709 -0.0421381 16.1631 6.96619e-05C21.3967 0.0422775 25.5725 4.30851 25.5985 9.65267C25.6115 12.3183 25.6083 14.9871 25.5985 17.6527C25.5757 22.5715 22.2104 26.4124 17.3641 27.2111C16.4495 27.3605 15.561 27.8377 14.7343 28.2955C12.2639 29.6689 9.83267 31.1072 7.38187 32.5163C7.15079 32.6494 6.90017 32.7533 6.49333 32.9514L6.48682 32.9546ZM10.6105 26.7014C10.6952 26.7598 10.7798 26.815 10.8644 26.8734C12.2281 26.091 13.5788 25.2858 14.9621 24.5358C15.3527 24.3247 15.8213 24.1819 16.2672 24.1494C19.8019 23.9059 22.4056 21.2241 22.4382 17.6949C22.4642 15.0001 22.4642 12.3053 22.4382 9.61046C22.4056 6.01955 19.6033 3.18838 16.0915 3.15591C12.622 3.12345 9.73503 5.98708 9.68946 9.55526C9.65366 12.3118 9.58206 15.0747 9.72852 17.8247C9.79036 18.9806 10.2428 20.1721 10.7668 21.2241C11.1118 21.9189 11.2517 22.5066 11.1248 23.2371C10.9263 24.3864 10.7798 25.5455 10.6105 26.7014Z" fill="#FBFAF4"/>
<path id="Vector_2" d="M10.2232 32.4254C11.9547 31.7241 13.2859 30.3508 15.5382 30.5585C22.308 31.1852 28.7133 25.315 28.9281 18.5098C28.9997 16.2176 28.9736 13.9222 28.9411 11.63C28.9313 10.8767 29.1526 10.5813 29.9435 10.6008C32.531 10.6689 32.1047 10.3053 32.0982 12.7728C32.0917 15.2469 32.1763 17.7469 31.8801 20.1949C31.0762 26.8313 25.5757 32.393 18.9654 33.5098C18.5358 33.5813 17.8165 33.7501 17.7709 33.9774C17.6244 34.7144 17.6765 35.5066 17.7839 36.2598C17.8035 36.4059 18.4088 36.5456 18.7506 36.5618C20.1957 36.6332 20.1957 36.617 20.1989 38.0943C20.1989 38.341 20.1827 38.591 20.1989 38.8378C20.2347 39.4449 19.932 39.6527 19.3527 39.6495C17.146 39.6332 14.9393 39.6365 12.7359 39.643C12.2053 39.643 11.9059 39.4449 11.932 38.88C11.9385 38.7566 11.932 38.6332 11.9254 38.5066C11.8961 36.6624 11.8961 36.6397 13.6928 36.5813C14.3111 36.5618 14.4739 36.3345 14.4641 35.7371C14.4283 33.8118 14.4478 33.8313 12.5894 33.4027C11.792 33.2209 11.0174 32.9417 10.2297 32.7079C10.2297 32.6137 10.2232 32.5196 10.22 32.4254H10.2232Z" fill="#FBFAF4"/>
<path id="Vector_3" d="M5.35416 29.6949C3.39157 27.9221 2.0669 25.9708 1.16535 23.7371C0.371195 21.7663 -0.03239 19.7143 0.00341191 17.5747C0.0392138 15.5617 0.0327043 13.5487 0.00341191 11.539C-0.00635224 10.8734 0.185676 10.591 0.895204 10.6039C3.59011 10.6494 3.1377 10.3507 3.16699 12.776C3.18978 14.539 3.15072 16.3052 3.18001 18.0715C3.21907 20.5487 3.92534 22.8345 5.35416 24.8669C5.81308 25.5163 6.03114 26.1234 5.82284 26.9254C5.60803 27.7565 5.52992 28.6267 5.35742 29.6949H5.35416Z" fill="#FBFAF4"/>
</g>
</svg>
