<svg width="80" height="16" viewBox="0 0 80 16" fill="none" xmlns="http://www.w3.org/2000/svg">
<g clip-path="url(#clip0_2761_2143)">
<path d="M2.36967 12.6143C2.43982 12.0874 2.49927 11.6226 2.56466 11.1578C2.66453 10.4531 2.77986 9.75219 2.86427 9.04505C2.88567 8.86981 2.82385 8.68091 2.78461 8.50195C2.65502 7.91785 2.43744 7.34244 2.40177 6.75337C2.33876 5.72559 2.37443 4.68912 2.38632 3.65637C2.41129 1.59957 3.97117 -0.016036 5.90438 0.000120116C7.81619 0.0162762 9.3416 1.64928 9.35111 3.69489C9.35587 4.71521 9.35468 5.73678 9.35111 6.75709C9.34279 8.6399 8.11343 10.1101 6.3431 10.4158C6.00901 10.473 5.68443 10.6557 5.38244 10.8309C4.48004 11.3566 3.5919 11.9072 2.69663 12.4465C2.61222 12.4975 2.52067 12.5372 2.37205 12.6131L2.36967 12.6143ZM3.87606 10.2207C3.90697 10.2431 3.93788 10.2642 3.96879 10.2866C4.46696 9.98707 4.96037 9.67886 5.46566 9.39178C5.60834 9.311 5.77954 9.25632 5.94243 9.24389C7.23361 9.15068 8.18476 8.12415 8.19665 6.77325C8.20616 5.74175 8.20616 4.71024 8.19665 3.67874C8.18476 2.30423 7.16109 1.22053 5.87822 1.2081C4.61082 1.19567 3.55623 2.2918 3.53959 3.65761C3.52651 4.71273 3.50035 5.77033 3.55385 6.82296C3.57644 7.26539 3.74171 7.72149 3.93312 8.12415C4.05915 8.3901 4.11028 8.61505 4.06391 8.89467C3.99138 9.33461 3.93788 9.77829 3.87606 10.2207Z" fill="#FCFBF5"/>
<path d="M3.73459 12.4117C4.3671 12.1432 4.85338 11.6175 5.67612 11.6971C8.14911 11.9369 10.4889 9.68998 10.5674 7.08512C10.5936 6.20772 10.5841 5.32908 10.5722 4.45168C10.5686 4.16335 10.6494 4.05026 10.9384 4.05772C11.8836 4.08382 11.7278 3.94462 11.7254 4.88913C11.7231 5.83613 11.754 6.79307 11.6458 7.73012C11.3521 10.2704 9.3428 12.3992 6.92807 12.8267C6.77113 12.8541 6.50838 12.9187 6.49173 13.0057C6.43823 13.2878 6.45725 13.5911 6.49649 13.8794C6.50362 13.9353 6.72476 13.9887 6.8496 13.995C7.37749 14.0223 7.37749 14.0161 7.37868 14.5815C7.37868 14.676 7.37273 14.7717 7.37868 14.8661C7.39176 15.0985 7.28119 15.1781 7.06956 15.1768C6.26346 15.1706 5.45736 15.1719 4.65245 15.1744C4.45865 15.1744 4.34927 15.0985 4.35878 14.8823C4.36116 14.8351 4.35878 14.7878 4.3564 14.7394C4.3457 14.0335 4.3457 14.0248 5.00199 14.0024C5.22789 13.995 5.28734 13.908 5.28377 13.6793C5.27069 12.9423 5.27783 12.9498 4.59894 12.7857C4.30766 12.7161 4.02469 12.6093 3.73697 12.5198C3.73697 12.4837 3.73459 12.4477 3.7334 12.4117H3.73459Z" fill="#FCFBF5"/>
<path d="M1.9559 11.3665C1.23897 10.688 0.755075 9.94106 0.425739 9.08603C0.135639 8.33167 -0.0117896 7.54623 0.00128872 6.72724C0.014367 5.95672 0.0119892 5.1862 0.00128872 4.41692C-0.00227809 4.16215 0.0678692 4.05403 0.327057 4.059C1.3115 4.0764 1.14623 3.96206 1.15694 4.89042C1.16526 5.56525 1.15099 6.24132 1.16169 6.91739C1.17596 7.86563 1.43396 8.74054 1.9559 9.51852C2.12354 9.76707 2.2032 9.99947 2.12711 10.3064C2.04864 10.6246 2.0201 10.9577 1.95709 11.3665H1.9559Z" fill="#FCFBF5"/>
<path d="M18.797 6.73461V9.61164H22.5861V11.0197H18.797V15.1768H17.1194V5.31909H23.1295V6.73337H18.797V6.73461Z" fill="#FCFBF5"/>
<path d="M27.5369 7.74267C27.6511 7.76131 27.7367 7.7812 27.7925 7.80357L27.7795 9.39432C27.5631 9.35828 27.3503 9.33964 27.1386 9.33964C26.4169 9.33964 25.9342 9.62175 25.6881 10.186V15.1757H24.0759V7.85079H25.6108L25.656 8.67724C25.8332 8.37027 26.0531 8.1329 26.3171 7.96637C26.5798 7.79984 26.8842 7.71533 27.2302 7.71533C27.3205 7.71533 27.4228 7.72403 27.5381 7.74267H27.5369Z" fill="#FCFBF5"/>
<path d="M30.3452 5.30187C30.5093 5.47088 30.5913 5.68713 30.5913 5.94811C30.5913 6.20909 30.5093 6.41788 30.3452 6.58441C30.1812 6.75094 29.9588 6.83545 29.6782 6.83545C29.3976 6.83545 29.1753 6.75343 29.0112 6.58814C28.8472 6.42285 28.7651 6.21034 28.7651 5.94811C28.7651 5.68588 28.8472 5.47088 29.0112 5.30187C29.1753 5.13285 29.3976 5.04834 29.6782 5.04834C29.9588 5.04834 30.1812 5.13285 30.3452 5.30187ZM28.8686 15.1757V7.8508H30.4808V15.1757H28.8686Z" fill="#FCFBF5"/>
<path d="M38.097 12.0414H33.5315C33.5613 12.4155 33.6552 12.7473 33.8097 13.0369C33.9643 13.3264 34.1759 13.5514 34.4411 13.7142C34.7062 13.877 35.0165 13.9578 35.3708 13.9578C36.0961 13.9578 36.6786 13.6595 37.1197 13.0642L37.9805 13.9379C37.7261 14.3306 37.3718 14.6574 36.9188 14.9197C36.4658 15.1819 35.9165 15.3124 35.2733 15.3124C34.5909 15.3124 33.9952 15.1583 33.4863 14.8488C32.9763 14.5394 32.5863 14.1168 32.3141 13.5799C32.0418 13.0431 31.9062 12.4403 31.9062 11.773V11.4958C31.9062 10.7427 32.0442 10.0803 32.3212 9.50861C32.597 8.93818 32.9775 8.49699 33.4614 8.18506C33.9453 7.87312 34.4886 7.71777 35.0938 7.71777C35.7548 7.71777 36.3089 7.86939 36.7583 8.17139C37.2077 8.47338 37.543 8.89717 37.7653 9.44026C37.9877 9.9846 38.0994 10.6147 38.0994 11.3318V12.0426L38.097 12.0414ZM36.5039 10.6942C36.4825 10.2207 36.3588 9.83049 36.1353 9.52601C35.9106 9.22153 35.561 9.06867 35.0867 9.06867C34.6634 9.06867 34.3222 9.22278 34.063 9.5285C33.8038 9.83546 33.6373 10.2667 33.5648 10.821H36.5051V10.6917L36.5039 10.6942Z" fill="#FCFBF5"/>
<path d="M44.5244 8.36284C44.9108 8.79408 45.1046 9.49004 45.1046 10.4507V15.1757H43.4924V10.437C43.4924 9.94987 43.3925 9.60313 43.1916 9.39807C42.9906 9.19302 42.6827 9.08986 42.269 9.08986C41.967 9.08986 41.6971 9.16692 41.4593 9.31978C41.2215 9.47264 41.0313 9.68764 40.8898 9.96229V15.1745H39.2776V7.84957H40.7935L40.8458 8.6959C41.0967 8.38024 41.3939 8.1379 41.7399 7.96764C42.0847 7.79862 42.4651 7.71411 42.8801 7.71411C43.5922 7.71411 44.1415 7.92911 44.5279 8.36035L44.5244 8.36284Z" fill="#FCFBF5"/>
<path d="M52.5461 4.77734V15.1757H51.0885L51.0112 14.4101C50.5452 15.0104 49.921 15.3111 49.1398 15.3111C48.587 15.3111 48.1019 15.1508 47.6858 14.8302C47.2696 14.5095 46.9486 14.0671 46.7239 13.5029C46.4992 12.9387 46.3875 12.3024 46.3875 11.594V11.4523C46.3875 10.7116 46.498 10.0604 46.7215 9.49617C46.9439 8.93195 47.2637 8.49449 47.6798 8.18255C48.096 7.87061 48.587 7.71527 49.1529 7.71527C49.8865 7.71527 50.481 7.98371 50.9339 8.52059V4.77734H52.5461ZM50.9339 13.0505V9.94978C50.6534 9.37686 50.1956 9.08978 49.5607 9.08978C49.034 9.08978 48.6417 9.30851 48.3849 9.74596C48.1281 10.1834 47.9997 10.7526 47.9997 11.4523V11.594C47.9997 12.2887 48.1257 12.8517 48.3789 13.2829C48.6322 13.7141 49.0209 13.9291 49.5476 13.9291C50.1861 13.9291 50.6486 13.6359 50.9339 13.0493V13.0505Z" fill="#FCFBF5"/>
<path d="M61.4644 15.0873V15.1756H59.6644L57.793 11.3975H55.9989V15.1756H54.3213V5.31909H57.6634C58.7513 5.31909 59.5918 5.57386 60.1863 6.08464C60.7796 6.59418 61.0768 7.3299 61.0768 8.29181C61.0768 8.94178 60.9282 9.49233 60.6298 9.94346C60.3314 10.3946 59.9093 10.7426 59.36 10.9862L61.4644 15.0886V15.0873ZM55.9977 9.99069H57.6681C58.2293 9.99069 58.6573 9.84404 58.9534 9.55075C59.2494 9.25745 59.3969 8.86722 59.3969 8.38005C59.3969 7.86181 59.2542 7.45667 58.9688 7.16834C58.6835 6.88002 58.2483 6.73461 57.661 6.73461H55.9965V9.99069H55.9977Z" fill="#FCFBF5"/>
<path d="M68.296 15.0614V15.177H66.6505C66.5816 15.0191 66.5209 14.7917 66.4686 14.4934C66.2487 14.742 65.9847 14.9408 65.678 15.0887C65.3712 15.2379 65.0241 15.3124 64.6353 15.3124C64.1775 15.3124 63.7674 15.218 63.4047 15.0278C63.0421 14.8377 62.7591 14.5767 62.5558 14.2424C62.3525 13.9081 62.2515 13.534 62.2515 13.1189C62.2515 12.3385 62.5285 11.7407 63.0837 11.3244C63.639 10.9093 64.4248 10.7017 65.4438 10.7017H66.4151V10.2282C66.4151 9.84048 66.3141 9.53724 66.1107 9.31727C65.9074 9.09854 65.6078 8.98918 65.2107 8.98918C64.9729 8.98918 64.7637 9.03143 64.583 9.11718C64.4011 9.20294 64.2608 9.31976 64.1621 9.46889C64.0622 9.61802 64.0135 9.78455 64.0135 9.96973H62.4013C62.4013 9.57701 62.5213 9.20791 62.7603 8.86241C63.0005 8.51692 63.3405 8.23978 63.784 8.02975C64.2263 7.81973 64.7328 7.71533 65.3023 7.71533C65.8373 7.71533 66.3105 7.80978 66.7207 7.99993C67.1309 8.19007 67.4519 8.47343 67.6825 8.85247C67.9132 9.23152 68.0285 9.69383 68.0285 10.2407V13.4694C68.0285 14.1368 68.1165 14.6674 68.2936 15.0601L68.296 15.0614ZM65.8456 13.7142C66.1072 13.5477 66.2974 13.3464 66.4187 13.1115V11.7444H65.5769C65.0157 11.7444 64.5901 11.85 64.3012 12.0626C64.0123 12.2751 63.8672 12.5721 63.8672 12.9561C63.8672 13.2544 63.9623 13.4967 64.1526 13.6844C64.3428 13.872 64.6079 13.9653 64.9492 13.9653C65.2904 13.9653 65.5852 13.882 65.8456 13.7155V13.7142Z" fill="#FCFBF5"/>
<path d="M72.9341 13.8497V15.1496C72.6238 15.2578 72.2731 15.3124 71.8855 15.3124C71.316 15.3124 70.8666 15.1472 70.5384 14.8178C70.2103 14.4885 70.0462 13.9628 70.0462 13.2407V9.09732H68.906V7.85205H70.0462V6.06494H71.6584V7.85205H72.8889V9.09732H71.6584V13.1252C71.6584 13.4321 71.719 13.6409 71.8403 13.7515C71.9616 13.8621 72.1423 13.9168 72.3848 13.9168C72.5572 13.9168 72.7415 13.8944 72.9353 13.8497H72.9341Z" fill="#FCFBF5"/>
<path d="M79.9999 12.0414H75.4344C75.4641 12.4155 75.558 12.7473 75.7126 13.0369C75.8683 13.3252 76.0788 13.5514 76.3439 13.7142C76.609 13.877 76.9193 13.9578 77.2736 13.9578C77.9989 13.9578 78.5815 13.6595 79.0226 13.0642L79.8834 13.9379C79.6289 14.3306 79.2746 14.6574 78.8216 14.9197C78.3687 15.1819 77.8194 15.3124 77.1762 15.3124C76.4937 15.3124 75.898 15.1583 75.3892 14.8488C74.8791 14.5394 74.4892 14.1168 74.2169 13.5799C73.9446 13.0431 73.8091 12.4403 73.8091 11.773V11.4958C73.8091 10.7427 73.947 10.0803 74.224 9.50861C74.4999 8.93818 74.8803 8.49699 75.3642 8.18506C75.8481 7.87312 76.3915 7.71777 76.9966 7.71777C77.6577 7.71777 78.2117 7.86939 78.6611 8.17139C79.1106 8.47338 79.4458 8.89717 79.6682 9.44026C79.8905 9.9846 80.0023 10.6147 80.0023 11.3318V12.0426L79.9999 12.0414ZM78.4067 10.6942C78.3853 10.2207 78.2617 9.83049 78.0381 9.52601C77.8134 9.22153 77.4639 9.06867 76.9895 9.06867C76.5662 9.06867 76.225 9.22278 75.9658 9.5285C75.7066 9.83546 75.5402 10.2667 75.4677 10.821H78.4079V10.6917L78.4067 10.6942Z" fill="#FCFBF5"/>
</g>
<defs>
<clipPath id="clip0_2761_2143">
<rect width="80" height="15.311" fill="white"/>
</clipPath>
</defs>
</svg>
